<svg width="67" height="53" viewBox="0 0 67 53" fill="none" xmlns="http://www.w3.org/2000/svg">
<path d="M19.6207 52.8452C15.6932 52.8286 12.3374 51.7929 9.55327 49.7379C6.76918 47.683 4.63968 44.6918 3.16477 40.7642C1.68987 36.8366 0.952415 32.1054 0.952415 26.5703C0.952415 21.0518 1.68987 16.3371 3.16477 12.4261C4.65625 8.51515 6.79403 5.5322 9.57812 3.47727C12.3788 1.42235 15.7263 0.394884 19.6207 0.394884C23.5152 0.394884 26.8544 1.43063 29.6385 3.50213C32.4226 5.55705 34.5521 8.54001 36.027 12.451C37.5185 16.3454 38.2642 21.0518 38.2642 26.5703C38.2642 32.1219 37.5268 36.8615 36.0518 40.7891C34.5769 44.7 32.4474 47.6913 29.6634 49.7628C26.8793 51.8177 23.5317 52.8452 19.6207 52.8452ZM19.6207 46.2081C23.0677 46.2081 25.7607 44.526 27.6996 41.1619C29.6551 37.7978 30.6328 32.9339 30.6328 26.5703C30.6328 22.3445 30.1854 18.7732 29.2905 15.8565C28.4122 12.9233 27.1444 10.7026 25.4872 9.1946C23.8466 7.66998 21.8911 6.90767 19.6207 6.90767C16.1903 6.90767 13.4974 8.59801 11.5419 11.9787C9.58641 15.3594 8.60038 20.2232 8.58381 26.5703C8.58381 30.8127 9.02296 34.4006 9.90128 37.3338C10.7962 40.2505 12.0639 42.4628 13.7045 43.9709C15.3452 45.4624 17.3172 46.2081 19.6207 46.2081ZM66.3972 1.09091V52H58.6912V8.79688H58.3929L46.2125 16.7514V9.39346L58.915 1.09091H66.3972Z" fill="#8C9E1B"/>
</svg>
