<svg width="81" height="53" viewBox="0 0 81 53" fill="none" xmlns="http://www.w3.org/2000/svg">
<path d="M19.6207 52.8452C15.6932 52.8286 12.3374 51.7929 9.55327 49.7379C6.76918 47.683 4.63968 44.6918 3.16477 40.7642C1.68987 36.8366 0.952415 32.1054 0.952415 26.5703C0.952415 21.0518 1.68987 16.3371 3.16477 12.4261C4.65625 8.51515 6.79403 5.5322 9.57812 3.47727C12.3788 1.42235 15.7263 0.394884 19.6207 0.394884C23.5152 0.394884 26.8544 1.43063 29.6385 3.50213C32.4226 5.55705 34.5521 8.54001 36.027 12.451C37.5185 16.3454 38.2642 21.0518 38.2642 26.5703C38.2642 32.1219 37.5268 36.8615 36.0518 40.7891C34.5769 44.7 32.4474 47.6913 29.6634 49.7628C26.8793 51.8177 23.5317 52.8452 19.6207 52.8452ZM19.6207 46.2081C23.0677 46.2081 25.7607 44.526 27.6996 41.1619C29.6551 37.7978 30.6328 32.9339 30.6328 26.5703C30.6328 22.3445 30.1854 18.7732 29.2905 15.8565C28.4122 12.9233 27.1444 10.7026 25.4872 9.1946C23.8466 7.66998 21.8911 6.90767 19.6207 6.90767C16.1903 6.90767 13.4974 8.59801 11.5419 11.9787C9.58641 15.3594 8.60038 20.2232 8.58381 26.5703C8.58381 30.8127 9.02296 34.4006 9.90128 37.3338C10.7962 40.2505 12.0639 42.4628 13.7045 43.9709C15.3452 45.4624 17.3172 46.2081 19.6207 46.2081ZM47.0826 52V46.4318L64.3091 28.5838C66.1486 26.6449 67.665 24.9463 68.8581 23.4879C70.0679 22.013 70.9711 20.6127 71.5677 19.2869C72.1642 17.9612 72.4625 16.5526 72.4625 15.0611C72.4625 13.3707 72.0648 11.9124 71.2694 10.6861C70.4739 9.44318 69.3884 8.49029 68.013 7.82741C66.6375 7.14796 65.088 6.80824 63.3645 6.80824C61.5416 6.80824 59.9507 7.18111 58.5918 7.92685C57.2329 8.67258 56.1889 9.7249 55.4597 11.0838C54.7305 12.4427 54.3659 14.0336 54.3659 15.8565H47.0328C47.0328 12.7576 47.7454 10.0481 49.1706 7.72798C50.5958 5.40791 52.5513 3.60985 55.0371 2.33381C57.5229 1.04119 60.3484 0.394884 63.5137 0.394884C66.7121 0.394884 69.5293 1.03291 71.9654 2.30895C74.418 3.56842 76.3321 5.2919 77.7076 7.4794C79.083 9.65033 79.7708 12.103 79.7708 14.8374C79.7708 16.7266 79.4145 18.5743 78.7019 20.3807C78.0059 22.187 76.7878 24.2005 75.0478 26.4212C73.3077 28.6252 70.8882 31.3016 67.7892 34.4503L57.6721 45.0398V45.4126H80.5911V52H47.0826Z" fill="#8C9E1B"/>
</svg>
