<svg width="83" height="53" viewBox="0 0 83 53" fill="none" xmlns="http://www.w3.org/2000/svg">
<path d="M19.6207 52.8452C15.6932 52.8286 12.3374 51.7929 9.55327 49.7379C6.76918 47.683 4.63968 44.6918 3.16477 40.7642C1.68987 36.8366 0.952415 32.1054 0.952415 26.5703C0.952415 21.0518 1.68987 16.3371 3.16477 12.4261C4.65625 8.51515 6.79403 5.5322 9.57812 3.47727C12.3788 1.42235 15.7263 0.394884 19.6207 0.394884C23.5152 0.394884 26.8544 1.43063 29.6385 3.50213C32.4226 5.55705 34.5521 8.54001 36.027 12.451C37.5185 16.3454 38.2642 21.0518 38.2642 26.5703C38.2642 32.1219 37.5268 36.8615 36.0518 40.7891C34.5769 44.7 32.4474 47.6913 29.6634 49.7628C26.8793 51.8177 23.5317 52.8452 19.6207 52.8452ZM19.6207 46.2081C23.0677 46.2081 25.7607 44.526 27.6996 41.1619C29.6551 37.7978 30.6328 32.9339 30.6328 26.5703C30.6328 22.3445 30.1854 18.7732 29.2905 15.8565C28.4122 12.9233 27.1444 10.7026 25.4872 9.1946C23.8466 7.66998 21.8911 6.90767 19.6207 6.90767C16.1903 6.90767 13.4974 8.59801 11.5419 11.9787C9.58641 15.3594 8.60038 20.2232 8.58381 26.5703C8.58381 30.8127 9.02296 34.4006 9.90128 37.3338C10.7962 40.2505 12.0639 42.4628 13.7045 43.9709C15.3452 45.4624 17.3172 46.2081 19.6207 46.2081ZM64.8063 52.696C61.3925 52.696 58.3432 52.1077 55.6586 50.9311C52.9905 49.7545 50.8775 48.1222 49.3198 46.0341C47.7786 43.9295 46.95 41.4934 46.834 38.7259H54.6394C54.7388 40.2339 55.2443 41.5431 56.1557 42.6534C57.0837 43.7472 58.2935 44.5923 59.785 45.1889C61.2765 45.7855 62.9337 46.0838 64.7566 46.0838C66.7618 46.0838 68.535 45.7358 70.0762 45.0398C71.6339 44.3437 72.852 43.3743 73.7303 42.1314C74.6086 40.8719 75.0478 39.4219 75.0478 37.7812C75.0478 36.0743 74.6086 34.5746 73.7303 33.282C72.8685 31.9728 71.6008 30.9453 69.927 30.1996C68.2698 29.4538 66.2646 29.081 63.9114 29.081H59.611V22.8168H63.9114C65.8006 22.8168 67.4578 22.477 68.883 21.7976C70.3248 21.1181 71.4516 20.1735 72.2637 18.9638C73.0757 17.7375 73.4817 16.304 73.4817 14.6634C73.4817 13.089 73.1254 11.7218 72.4128 10.5618C71.7168 9.38518 70.7225 8.46544 69.4299 7.80256C68.1538 7.13968 66.6458 6.80824 64.9057 6.80824C63.2485 6.80824 61.699 7.11482 60.2573 7.72798C58.8321 8.32457 57.6721 9.18632 56.7772 10.3132C55.8823 11.4235 55.4017 12.7576 55.3354 14.3153H47.9029C47.9857 11.5644 48.7978 9.14489 50.339 7.05682C51.8967 4.96875 53.9516 3.33641 56.5037 2.1598C59.0558 0.983189 61.8896 0.394884 65.0052 0.394884C68.2698 0.394884 71.0871 1.03291 73.4569 2.30895C75.8432 3.56842 77.6827 5.25047 78.9753 7.35511C80.2845 9.45975 80.9308 11.7633 80.9142 14.2656C80.9308 17.116 80.1354 19.5355 78.5279 21.5241C76.937 23.5128 74.8158 24.8468 72.1642 25.5263V25.924C75.5449 26.4377 78.1633 27.7801 80.0194 29.951C81.892 32.1219 82.82 34.8149 82.8034 38.0298C82.82 40.8305 82.0411 43.3411 80.4668 45.5618C78.909 47.7824 76.7795 49.5308 74.0783 50.8068C71.3771 52.0663 68.2864 52.696 64.8063 52.696Z" fill="#8C9E1B"/>
</svg>
