<svg width="59" height="40" viewBox="0 0 59 40" fill="none" xmlns="http://www.w3.org/2000/svg">
<rect x="1.08329" y="0.416667" width="57.5" height="39.1667" rx="4.58333" fill="#1F72CD" stroke="#D9D9D9" stroke-width="0.833333"/>
<path fill-rule="evenodd" clip-rule="evenodd" d="M11.1244 14.167L5.66663 26.2449H12.2004L13.0104 24.3192H14.8618L15.6718 26.2449H22.8636V24.7751L23.5045 26.2449H27.2246L27.8655 24.7441V26.2449H42.8225L44.6412 24.3692L46.3441 26.2449L54.0264 26.2604L48.5513 20.2397L54.0264 14.167H46.4633L44.6929 16.008L43.0435 14.167H26.7723L25.3751 17.2844L23.9451 14.167H17.425V15.5868L16.6996 14.167H11.1244ZM33.4596 15.8822H42.0486L44.6756 18.7199L47.3873 15.8822H50.0142L46.0228 20.2381L50.0142 24.5438H47.2681L44.6411 21.6732L41.9156 24.5438H33.4596V15.8822ZM35.5806 19.2587V17.6766V17.675H40.9399L43.2783 20.2052L40.8362 22.7492H35.5806V21.022H40.2663V19.2587H35.5806ZM12.3887 15.8822H15.5736L19.1937 24.0723V15.8822H22.6826L25.4787 21.7545L28.0557 15.8822H31.5271V24.5489H29.4148L29.3976 17.7578L26.3181 24.5489H24.4285L21.3318 17.7578V24.5489H16.9863L16.1625 22.606H11.7117L10.8896 24.5472H8.56132L12.3887 15.8822ZM12.4716 20.8099L13.938 17.3487L15.4027 20.8099H12.4716Z" fill="white"/>
</svg>
