<svg width="15" height="11" viewBox="0 0 15 11" fill="none" xmlns="http://www.w3.org/2000/svg">
<path d="M6.58198 0.20779V3.00203C6.58198 3.85065 6.42675 4.75619 6.11627 5.71865C5.81615 6.67076 5.37114 7.597 4.78125 8.49736C4.2017 9.38738 3.49797 10.1636 2.67005 10.8259L0.683036 9.21144C1.33502 8.28003 1.89905 7.3124 2.3751 6.30854C2.86151 5.29434 3.10471 4.21286 3.10471 3.06412V0.20779H6.58198ZM14.53 0.20779V3.00203C14.53 3.85065 14.3748 4.75619 14.0643 5.71865C13.7642 6.67076 13.3192 7.597 12.7293 8.49736C12.1498 9.38738 11.446 10.1636 10.6181 10.8259L8.63109 9.21144C9.28308 8.28003 9.8471 7.3124 10.3232 6.30854C10.8096 5.29434 11.0528 4.21286 11.0528 3.06412V0.20779H14.53Z" fill="white"/>
</svg>
