<svg width="14" height="12" viewBox="0 0 14 12" fill="none" xmlns="http://www.w3.org/2000/svg">
<path d="M0.111201 11.1429V8.34862C0.111201 7.5 0.261262 6.59963 0.561384 5.64752C0.871855 4.68506 1.31686 3.75883 1.89641 2.86881C2.4863 1.96844 3.19521 1.18709 4.02313 0.524755L6.01015 2.1392C5.35816 3.07062 4.78896 4.04342 4.30256 5.05763C3.8265 6.06148 3.58847 7.13778 3.58847 8.28652V11.1429H0.111201ZM8.05925 11.1429V8.34862C8.05925 7.5 8.20931 6.59963 8.50944 5.64752C8.81991 4.68506 9.26492 3.75883 9.84446 2.86881C10.4344 1.96844 11.1433 1.18709 11.9712 0.524755L13.9582 2.1392C13.3062 3.07062 12.737 4.04342 12.2506 5.05763C11.7746 6.06148 11.5365 7.13778 11.5365 8.28652V11.1429H8.05925Z" fill="white"/>
</svg>
