<svg width="93" height="19" viewBox="0 0 93 19" fill="none" xmlns="http://www.w3.org/2000/svg">
<path d="M0.113636 18V0.545454H10.6477V2.42045H2.22727V8.31818H10.1023V10.1932H2.22727V16.125H10.7841V18H0.113636ZM17.6278 18L12.8551 0.545454H15.0028L18.6506 14.7614H18.821L22.5369 0.545454H24.9233L28.6392 14.7614H28.8097L32.4574 0.545454H34.6051L29.8324 18H27.6506L23.7983 4.09091H23.6619L19.8097 18H17.6278ZM39.5994 18.3068C38.7699 18.3068 38.017 18.1506 37.3409 17.8381C36.6648 17.5199 36.1278 17.0625 35.7301 16.4659C35.3324 15.8636 35.1335 15.1364 35.1335 14.2841C35.1335 13.5341 35.2813 12.9261 35.5767 12.4602C35.8722 11.9886 36.267 11.6193 36.7614 11.3523C37.2557 11.0852 37.8011 10.8864 38.3977 10.7557C39 10.6193 39.6051 10.5114 40.2131 10.4318C41.0085 10.3295 41.6534 10.2528 42.1477 10.2017C42.6477 10.1449 43.0114 10.0511 43.2386 9.92045C43.4716 9.78977 43.5881 9.5625 43.5881 9.23864V9.17045C43.5881 8.32955 43.358 7.67614 42.8977 7.21023C42.4432 6.74432 41.7528 6.51136 40.8267 6.51136C39.8665 6.51136 39.1136 6.72159 38.5682 7.14205C38.0227 7.5625 37.6392 8.01136 37.4176 8.48864L35.5085 7.80682C35.8494 7.01136 36.304 6.39205 36.8722 5.94886C37.446 5.5 38.071 5.1875 38.7472 5.01136C39.429 4.82955 40.0994 4.73864 40.7585 4.73864C41.179 4.73864 41.6619 4.78977 42.2074 4.89204C42.7585 4.98864 43.2898 5.19034 43.8011 5.49716C44.3182 5.80398 44.7472 6.26705 45.0881 6.88636C45.429 7.50568 45.5994 8.33523 45.5994 9.375V18H43.5881V16.2273H43.4858C43.3494 16.5114 43.1222 16.8153 42.804 17.1392C42.4858 17.4631 42.0625 17.7386 41.5341 17.9659C41.0057 18.1932 40.3608 18.3068 39.5994 18.3068ZM39.9062 16.5C40.7017 16.5 41.3722 16.3438 41.9176 16.0312C42.4688 15.7188 42.8835 15.3153 43.1619 14.821C43.446 14.3267 43.5881 13.8068 43.5881 13.2614V11.4205C43.5028 11.5227 43.3153 11.6165 43.0256 11.7017C42.7415 11.7812 42.4119 11.8523 42.0369 11.9148C41.6676 11.9716 41.3068 12.0227 40.9545 12.0682C40.608 12.108 40.3267 12.142 40.1108 12.1705C39.5881 12.2386 39.0994 12.3494 38.6449 12.5028C38.196 12.6506 37.8324 12.875 37.554 13.1761C37.2813 13.4716 37.1449 13.875 37.1449 14.3864C37.1449 15.0852 37.4034 15.6136 37.9205 15.9716C38.4432 16.3239 39.1051 16.5 39.9062 16.5ZM51.282 0.545454V18H49.2706V0.545454H51.282ZM56.9773 0.545454V18H54.9659V0.545454H56.9773ZM66.1499 18.2727C64.8885 18.2727 63.8004 17.9943 62.8857 17.4375C61.9766 16.875 61.2749 16.0909 60.7805 15.0852C60.2919 14.0739 60.0476 12.8977 60.0476 11.5568C60.0476 10.2159 60.2919 9.03409 60.7805 8.01136C61.2749 6.98295 61.9624 6.18182 62.843 5.60795C63.7294 5.02841 64.7635 4.73864 65.9453 4.73864C66.6271 4.73864 67.3004 4.85227 67.9652 5.07954C68.63 5.30682 69.2351 5.67614 69.7805 6.1875C70.326 6.69318 70.7607 7.36364 71.0845 8.19886C71.4084 9.03409 71.5703 10.0625 71.5703 11.2841V12.1364H61.4794V10.3977H69.5249C69.5249 9.65909 69.3771 9 69.0817 8.42045C68.7919 7.84091 68.3771 7.38352 67.8374 7.0483C67.3033 6.71307 66.6726 6.54545 65.9453 6.54545C65.1442 6.54545 64.451 6.74432 63.8658 7.14205C63.2862 7.53409 62.8402 8.04545 62.5277 8.67614C62.2152 9.30682 62.0589 9.98295 62.0589 10.7045V11.8636C62.0589 12.8523 62.2294 13.6903 62.5703 14.3778C62.9169 15.0597 63.397 15.5795 64.0107 15.9375C64.6243 16.2898 65.3374 16.4659 66.1499 16.4659C66.6783 16.4659 67.1555 16.392 67.5817 16.2443C68.0135 16.0909 68.3857 15.8636 68.6982 15.5625C69.0107 15.2557 69.2521 14.875 69.4226 14.4205L71.3658 14.9659C71.1612 15.625 70.8175 16.2045 70.3345 16.7045C69.8516 17.1989 69.255 17.5852 68.5447 17.8636C67.8345 18.1364 67.0362 18.2727 66.1499 18.2727ZM80.3232 4.90909V6.61364H73.5391V4.90909H80.3232ZM75.5163 1.77273H77.5277V14.25C77.5277 14.8182 77.6101 15.2443 77.7749 15.5284C77.9453 15.8068 78.1612 15.9943 78.4226 16.0909C78.6896 16.1818 78.9709 16.2273 79.2663 16.2273C79.4879 16.2273 79.6697 16.2159 79.8118 16.1932C79.9538 16.1648 80.0675 16.142 80.1527 16.125L80.5618 17.9318C80.4254 17.983 80.2351 18.0341 79.9908 18.0852C79.7464 18.142 79.4368 18.1705 79.0618 18.1705C78.4936 18.1705 77.9368 18.0483 77.3913 17.804C76.8516 17.5597 76.4027 17.1875 76.0447 16.6875C75.6925 16.1875 75.5163 15.5568 75.5163 14.7955V1.77273ZM92.3871 7.84091L90.5803 8.35227C90.4666 8.05114 90.299 7.75852 90.0774 7.47443C89.8615 7.18466 89.5661 6.94602 89.1911 6.75852C88.8161 6.57102 88.3359 6.47727 87.7507 6.47727C86.9496 6.47727 86.282 6.66193 85.7479 7.03125C85.2195 7.39489 84.9553 7.85795 84.9553 8.42045C84.9553 8.92045 85.1371 9.31534 85.5007 9.60511C85.8643 9.89489 86.4325 10.1364 87.2053 10.3295L89.1484 10.8068C90.3189 11.0909 91.1911 11.5256 91.7649 12.1108C92.3388 12.6903 92.6257 13.4375 92.6257 14.3523C92.6257 15.1023 92.4098 15.7727 91.978 16.3636C91.5518 16.9545 90.9553 17.4205 90.1882 17.7614C89.4212 18.1023 88.5291 18.2727 87.5121 18.2727C86.1768 18.2727 85.0717 17.983 84.1967 17.4034C83.3217 16.8239 82.7678 15.9773 82.5348 14.8636L84.4439 14.3864C84.6257 15.0909 84.9695 15.6193 85.4751 15.9716C85.9865 16.3239 86.6541 16.5 87.478 16.5C88.4155 16.5 89.1598 16.3011 89.7109 15.9034C90.2678 15.5 90.5462 15.017 90.5462 14.4545C90.5462 14 90.3871 13.6193 90.0689 13.3125C89.7507 13 89.2621 12.767 88.603 12.6136L86.4212 12.1023C85.2223 11.8182 84.3416 11.3778 83.7791 10.7812C83.2223 10.179 82.9439 9.42614 82.9439 8.52273C82.9439 7.78409 83.1513 7.13068 83.5661 6.5625C83.9865 5.99432 84.5575 5.5483 85.2791 5.22443C86.0064 4.90057 86.8303 4.73864 87.7507 4.73864C89.0462 4.73864 90.0632 5.02273 90.8018 5.59091C91.5462 6.15909 92.0746 6.90909 92.3871 7.84091Z" fill="white"/>
</svg>
