<svg width="129" height="37" viewBox="0 0 129 37" fill="none" xmlns="http://www.w3.org/2000/svg">
<path d="M26.8231 10.175V12.025C26.8231 20.9304 21.8535 24.975 15.7231 24.975L13.9641 24.975C14.1597 22.1886 15.0269 20.5025 17.2918 18.499C18.4055 17.5138 18.3117 16.945 17.7626 17.2717C13.9853 19.519 12.1092 22.5573 12.026 27.408L12.0231 27.75H10.1731C10.1731 26.4896 10.2802 25.3448 10.4929 24.2981C10.2797 23.1011 10.1731 21.4763 10.1731 19.425C10.1731 14.3164 14.3145 10.175 19.4231 10.175C21.2731 10.175 23.1231 11.1 26.8231 10.175Z" fill="#8C9E1B"/>
<path d="M37 18.5C37 28.7173 28.7173 37 18.5 37C8.28273 37 0 28.7173 0 18.5C0 8.28273 8.28273 0 18.5 0C28.7173 0 37 8.28273 37 18.5ZM3.7 18.5C3.7 26.6738 10.3262 33.3 18.5 33.3C26.6738 33.3 33.3 26.6738 33.3 18.5C33.3 10.3262 26.6738 3.7 18.5 3.7C10.3262 3.7 3.7 10.3262 3.7 18.5Z" fill="#8C9E1B"/>
<path d="M60.4068 3.95455V18.5H58.7022L50.7761 7.07955H50.6341V18.5H48.8727V3.95455H50.5772L58.5318 15.4034H58.6738V3.95455H60.4068ZM70.579 14.0398V7.59091H72.2551V18.5H70.579V16.6534H70.4654C70.2097 17.2074 69.812 17.6785 69.2722 18.0668C68.7324 18.4503 68.0506 18.642 67.2267 18.642C66.5449 18.642 65.9389 18.4929 65.4086 18.1946C64.8783 17.8916 64.4616 17.437 64.1586 16.831C63.8555 16.2202 63.704 15.4508 63.704 14.5227V7.59091H65.3801V14.4091C65.3801 15.2045 65.6027 15.839 66.0478 16.3125C66.4976 16.786 67.0705 17.0227 67.7665 17.0227C68.1832 17.0227 68.6069 16.9162 69.0378 16.7031C69.4734 16.4901 69.838 16.1634 70.1316 15.723C70.4299 15.2827 70.579 14.7216 70.579 14.0398ZM80.0694 7.59091V9.01136H74.416V7.59091H80.0694ZM76.0637 4.97727H77.7399V15.375C77.7399 15.8485 77.8085 16.2036 77.9458 16.4403C78.0879 16.6723 78.2678 16.8286 78.4856 16.9091C78.7082 16.9848 78.9425 17.0227 79.1887 17.0227C79.3734 17.0227 79.5249 17.0133 79.6433 16.9943C79.7617 16.9706 79.8564 16.9517 79.9274 16.9375L80.2683 18.4432C80.1547 18.4858 79.996 18.5284 79.7924 18.571C79.5888 18.6184 79.3308 18.642 79.0183 18.642C78.5448 18.642 78.0808 18.5402 77.6262 18.3366C77.1764 18.133 76.8024 17.8229 76.5041 17.4062C76.2105 16.9896 76.0637 16.464 76.0637 15.8295V4.97727ZM82.5907 18.5V7.59091H84.21V9.23864H84.3237C84.5225 8.69886 84.8824 8.26089 85.4032 7.92472C85.9241 7.58854 86.5112 7.42045 87.1646 7.42045C87.2877 7.42045 87.4416 7.42282 87.6262 7.42756C87.8109 7.43229 87.9506 7.43939 88.0453 7.44886V9.15341C87.9885 9.1392 87.8583 9.1179 87.6547 9.08949C87.4558 9.05634 87.2451 9.03977 87.0225 9.03977C86.4922 9.03977 86.0188 9.15104 85.6021 9.37358C85.1902 9.59138 84.8635 9.89441 84.622 10.2827C84.3852 10.6662 84.2669 11.1042 84.2669 11.5966V18.5H82.5907ZM90.0321 18.5V7.59091H91.7083V18.5H90.0321ZM90.8844 5.77273C90.5577 5.77273 90.276 5.66146 90.0392 5.43892C89.8072 5.21638 89.6912 4.94886 89.6912 4.63636C89.6912 4.32386 89.8072 4.05634 90.0392 3.83381C90.276 3.61127 90.5577 3.5 90.8844 3.5C91.2111 3.5 91.4905 3.61127 91.7225 3.83381C91.9592 4.05634 92.0776 4.32386 92.0776 4.63636C92.0776 4.94886 91.9592 5.21638 91.7225 5.43892C91.4905 5.66146 91.2111 5.77273 90.8844 5.77273ZM99.5225 7.59091V9.01136H93.8691V7.59091H99.5225ZM95.5169 4.97727H97.193V15.375C97.193 15.8485 97.2617 16.2036 97.399 16.4403C97.541 16.6723 97.7209 16.8286 97.9387 16.9091C98.1613 16.9848 98.3957 17.0227 98.6419 17.0227C98.8265 17.0227 98.978 17.0133 99.0964 16.9943C99.2148 16.9706 99.3095 16.9517 99.3805 16.9375L99.7214 18.4432C99.6078 18.4858 99.4492 18.5284 99.2456 18.571C99.042 18.6184 98.7839 18.642 98.4714 18.642C97.9979 18.642 97.5339 18.5402 97.0794 18.3366C96.6296 18.133 96.2555 17.8229 95.9572 17.4062C95.6636 16.9896 95.5169 16.464 95.5169 15.8295V4.97727ZM102.044 18.5V7.59091H103.72V18.5H102.044ZM102.896 5.77273C102.569 5.77273 102.288 5.66146 102.051 5.43892C101.819 5.21638 101.703 4.94886 101.703 4.63636C101.703 4.32386 101.819 4.05634 102.051 3.83381C102.288 3.61127 102.569 3.5 102.896 3.5C103.223 3.5 103.502 3.61127 103.734 3.83381C103.971 4.05634 104.089 4.32386 104.089 4.63636C104.089 4.94886 103.971 5.21638 103.734 5.43892C103.502 5.66146 103.223 5.77273 102.896 5.77273ZM111.222 18.7273C110.237 18.7273 109.373 18.4929 108.629 18.0241C107.891 17.5554 107.313 16.8996 106.896 16.0568C106.485 15.214 106.279 14.2292 106.279 13.1023C106.279 11.9659 106.485 10.974 106.896 10.1264C107.313 9.27888 107.891 8.62074 108.629 8.15199C109.373 7.68324 110.237 7.44886 111.222 7.44886C112.207 7.44886 113.068 7.68324 113.807 8.15199C114.55 8.62074 115.128 9.27888 115.54 10.1264C115.957 10.974 116.165 11.9659 116.165 13.1023C116.165 14.2292 115.957 15.214 115.54 16.0568C115.128 16.8996 114.55 17.5554 113.807 18.0241C113.068 18.4929 112.207 18.7273 111.222 18.7273ZM111.222 17.2216C111.97 17.2216 112.585 17.0298 113.068 16.6463C113.551 16.2628 113.909 15.7585 114.141 15.1335C114.373 14.5085 114.489 13.8314 114.489 13.1023C114.489 12.3731 114.373 11.6937 114.141 11.0639C113.909 10.4342 113.551 9.92519 113.068 9.53693C112.585 9.14867 111.97 8.95455 111.222 8.95455C110.474 8.95455 109.858 9.14867 109.375 9.53693C108.892 9.92519 108.535 10.4342 108.303 11.0639C108.071 11.6937 107.955 12.3731 107.955 13.1023C107.955 13.8314 108.071 14.5085 108.303 15.1335C108.535 15.7585 108.892 16.2628 109.375 16.6463C109.858 17.0298 110.474 17.2216 111.222 17.2216ZM120.4 11.9375V18.5H118.724V7.59091H120.343V9.29545H120.485C120.741 8.74148 121.129 8.2964 121.65 7.96023C122.171 7.61932 122.843 7.44886 123.667 7.44886C124.405 7.44886 125.052 7.60038 125.606 7.90341C126.16 8.2017 126.59 8.65625 126.898 9.26705C127.206 9.87311 127.36 10.6402 127.36 11.5682V18.5H125.684V11.6818C125.684 10.8248 125.461 10.1572 125.016 9.67898C124.571 9.19602 123.96 8.95455 123.184 8.95455C122.649 8.95455 122.171 9.07055 121.749 9.30256C121.332 9.53456 121.003 9.87311 120.762 10.3182C120.52 10.7633 120.4 11.303 120.4 11.9375Z" fill="white"/>
<path d="M53.8316 27.5739L52.7776 27.8722C52.7113 27.6965 52.6135 27.5258 52.4843 27.3601C52.3583 27.1911 52.186 27.0518 51.9672 26.9425C51.7485 26.8331 51.4684 26.7784 51.127 26.7784C50.6597 26.7784 50.2703 26.8861 49.9587 27.1016C49.6505 27.3137 49.4964 27.5838 49.4964 27.9119C49.4964 28.2036 49.6024 28.4339 49.8145 28.603C50.0267 28.772 50.3581 28.9129 50.8089 29.0256L51.9424 29.304C52.6251 29.4697 53.1339 29.7232 53.4687 30.0646C53.8034 30.4027 53.9708 30.8385 53.9708 31.3722C53.9708 31.8097 53.8448 32.2008 53.593 32.5455C53.3444 32.8902 52.9964 33.1619 52.5489 33.3608C52.1015 33.5597 51.5811 33.6591 50.9878 33.6591C50.209 33.6591 49.5643 33.4901 49.0539 33.152C48.5435 32.8139 48.2203 32.3201 48.0844 31.6705L49.1981 31.392C49.3041 31.803 49.5046 32.1113 49.7996 32.3168C50.0979 32.5223 50.4874 32.625 50.968 32.625C51.5148 32.625 51.949 32.509 52.2705 32.277C52.5953 32.0417 52.7577 31.7599 52.7577 31.4318C52.7577 31.1667 52.6649 30.9446 52.4793 30.7656C52.2937 30.5833 52.0087 30.4474 51.6242 30.358L50.3515 30.0597C49.6521 29.8939 49.1384 29.6371 48.8103 29.2891C48.4855 28.9377 48.3231 28.4986 48.3231 27.9716C48.3231 27.5407 48.444 27.1596 48.686 26.8281C48.9313 26.4967 49.2644 26.2365 49.6853 26.0476C50.1095 25.8587 50.5901 25.7642 51.127 25.7642C51.8827 25.7642 52.476 25.9299 52.9069 26.2614C53.3411 26.5928 53.6493 27.0303 53.8316 27.5739ZM58.9387 33.6591C58.2029 33.6591 57.5682 33.4967 57.0345 33.1719C56.5042 32.8438 56.0949 32.3864 55.8066 31.7997C55.5215 31.2098 55.379 30.5237 55.379 29.7415C55.379 28.9593 55.5215 28.2699 55.8066 27.6733C56.0949 27.0734 56.4959 26.6061 57.0097 26.2713C57.5267 25.9332 58.1299 25.7642 58.8193 25.7642C59.2171 25.7642 59.6098 25.8305 59.9976 25.9631C60.3854 26.0956 60.7384 26.3111 61.0566 26.6094C61.3747 26.9044 61.6283 27.2955 61.8172 27.7827C62.0061 28.2699 62.1006 28.8698 62.1006 29.5824V30.0795H56.2142V29.0653H60.9074C60.9074 28.6345 60.8212 28.25 60.6489 27.9119C60.4798 27.5739 60.2379 27.3071 59.923 27.1115C59.6115 26.916 59.2436 26.8182 58.8193 26.8182C58.352 26.8182 57.9477 26.9342 57.6063 27.1662C57.2682 27.3949 57.008 27.6932 56.8257 28.0611C56.6434 28.429 56.5523 28.8234 56.5523 29.2443V29.9205C56.5523 30.4972 56.6517 30.986 56.8506 31.3871C57.0528 31.7848 57.3328 32.0881 57.6908 32.2969C58.0487 32.5024 58.4647 32.6051 58.9387 32.6051C59.2469 32.6051 59.5253 32.562 59.7739 32.4759C60.0258 32.3864 60.2429 32.2538 60.4252 32.0781C60.6075 31.8991 60.7483 31.6771 60.8477 31.4119L61.9813 31.7301C61.8619 32.1146 61.6614 32.4527 61.3797 32.7443C61.098 33.0327 60.75 33.258 60.3357 33.4205C59.9214 33.5795 59.4557 33.6591 58.9387 33.6591ZM63.8854 33.5V25.8636H65.0189V27.017H65.0985C65.2377 26.6392 65.4896 26.3326 65.8541 26.0973C66.2187 25.862 66.6297 25.7443 67.0871 25.7443C67.1733 25.7443 67.281 25.746 67.4102 25.7493C67.5395 25.7526 67.6373 25.7576 67.7036 25.7642V26.9574C67.6638 26.9474 67.5727 26.9325 67.4301 26.9126C67.2909 26.8894 67.1434 26.8778 66.9877 26.8778C66.6164 26.8778 66.285 26.9557 65.9933 27.1115C65.705 27.264 65.4763 27.4761 65.3073 27.7479C65.1415 28.0163 65.0587 28.3229 65.0587 28.6676V33.5H63.8854ZM75.5711 25.8636L72.7472 33.5H71.5541L68.7302 25.8636H70.0029L72.1109 31.9489H72.1904L74.2984 25.8636H75.5711ZM77.1198 33.5V25.8636H78.2931V33.5H77.1198ZM77.7164 24.5909C77.4877 24.5909 77.2905 24.513 77.1247 24.3572C76.9623 24.2015 76.8811 24.0142 76.8811 23.7955C76.8811 23.5767 76.9623 23.3894 77.1247 23.2337C77.2905 23.0779 77.4877 23 77.7164 23C77.945 23 78.1406 23.0779 78.303 23.2337C78.4687 23.3894 78.5516 23.5767 78.5516 23.7955C78.5516 24.0142 78.4687 24.2015 78.303 24.3572C78.1406 24.513 77.945 24.5909 77.7164 24.5909ZM83.5443 33.6591C82.8284 33.6591 82.2119 33.4901 81.6949 33.152C81.1778 32.8139 80.7801 32.3482 80.5017 31.755C80.2233 31.1617 80.0841 30.4839 80.0841 29.7216C80.0841 28.946 80.2266 28.2616 80.5116 27.6683C80.8 27.0717 81.201 26.6061 81.7148 26.2713C82.2318 25.9332 82.835 25.7642 83.5244 25.7642C84.0613 25.7642 84.5452 25.8636 84.9761 26.0625C85.407 26.2614 85.76 26.5398 86.0351 26.8977C86.3102 27.2557 86.4809 27.6733 86.5471 28.1506H85.3738C85.2844 27.8026 85.0855 27.4943 84.7773 27.2259C84.4723 26.9541 84.0613 26.8182 83.5443 26.8182C83.0869 26.8182 82.6859 26.9375 82.3412 27.1761C81.9998 27.4115 81.733 27.7446 81.5407 28.1754C81.3518 28.603 81.2574 29.1051 81.2574 29.6818C81.2574 30.2718 81.3502 30.7855 81.5358 31.223C81.7247 31.6605 81.9898 32.0002 82.3312 32.2422C82.6759 32.4841 83.0803 32.6051 83.5443 32.6051C83.8492 32.6051 84.126 32.5521 84.3746 32.446C84.6231 32.34 84.8336 32.1875 85.0059 31.9886C85.1783 31.7898 85.3009 31.5511 85.3738 31.2727H86.5471C86.4809 31.7235 86.3168 32.1295 86.055 32.4908C85.7964 32.8487 85.4534 33.1338 85.0258 33.3459C84.6016 33.5547 84.1077 33.6591 83.5443 33.6591ZM91.464 33.6591C90.7282 33.6591 90.0935 33.4967 89.5599 33.1719C89.0296 32.8438 88.6203 32.3864 88.3319 31.7997C88.0469 31.2098 87.9044 30.5237 87.9044 29.7415C87.9044 28.9593 88.0469 28.2699 88.3319 27.6733C88.6203 27.0734 89.0213 26.6061 89.5351 26.2713C90.0521 25.9332 90.6553 25.7642 91.3447 25.7642C91.7425 25.7642 92.1352 25.8305 92.523 25.9631C92.9108 26.0956 93.2638 26.3111 93.5819 26.6094C93.9001 26.9044 94.1537 27.2955 94.3426 27.7827C94.5315 28.2699 94.626 28.8698 94.626 29.5824V30.0795H88.7396V29.0653H93.4328C93.4328 28.6345 93.3466 28.25 93.1743 27.9119C93.0052 27.5739 92.7633 27.3071 92.4484 27.1115C92.1369 26.916 91.769 26.8182 91.3447 26.8182C90.8774 26.8182 90.473 26.9342 90.1317 27.1662C89.7936 27.3949 89.5334 27.6932 89.3511 28.0611C89.1688 28.429 89.0777 28.8234 89.0777 29.2443V29.9205C89.0777 30.4972 89.1771 30.986 89.376 31.3871C89.5782 31.7848 89.8582 32.0881 90.2162 32.2969C90.5741 32.5024 90.9901 32.6051 91.464 32.6051C91.7723 32.6051 92.0507 32.562 92.2993 32.4759C92.5512 32.3864 92.7683 32.2538 92.9506 32.0781C93.1328 31.8991 93.2737 31.6771 93.3731 31.4119L94.5067 31.7301C94.3873 32.1146 94.1868 32.4527 93.9051 32.7443C93.6234 33.0327 93.2754 33.258 92.8611 33.4205C92.4468 33.5795 91.9811 33.6591 91.464 33.6591ZM101.82 27.5739L100.766 27.8722C100.7 27.6965 100.602 27.5258 100.473 27.3601C100.347 27.1911 100.174 27.0518 99.9555 26.9425C99.7368 26.8331 99.4567 26.7784 99.1153 26.7784C98.648 26.7784 98.2586 26.8861 97.947 27.1016C97.6388 27.3137 97.4846 27.5838 97.4846 27.9119C97.4846 28.2036 97.5907 28.4339 97.8028 28.603C98.0149 28.772 98.3464 28.9129 98.7971 29.0256L99.9307 29.304C100.613 29.4697 101.122 29.7232 101.457 30.0646C101.792 30.4027 101.959 30.8385 101.959 31.3722C101.959 31.8097 101.833 32.2008 101.581 32.5455C101.333 32.8902 100.985 33.1619 100.537 33.3608C100.09 33.5597 99.5694 33.6591 98.9761 33.6591C98.1972 33.6591 97.5526 33.4901 97.0422 33.152C96.5318 32.8139 96.2086 32.3201 96.0727 31.6705L97.1863 31.392C97.2924 31.803 97.4929 32.1113 97.7879 32.3168C98.0862 32.5223 98.4756 32.625 98.9562 32.625C99.5031 32.625 99.9373 32.509 100.259 32.277C100.584 32.0417 100.746 31.7599 100.746 31.4318C100.746 31.1667 100.653 30.9446 100.468 30.7656C100.282 30.5833 99.997 30.4474 99.6125 30.358L98.3398 30.0597C97.6404 29.8939 97.1267 29.6371 96.7986 29.2891C96.4738 28.9377 96.3113 28.4986 96.3113 27.9716C96.3113 27.5407 96.4323 27.1596 96.6743 26.8281C96.9195 26.4967 97.2526 26.2365 97.6736 26.0476C98.0978 25.8587 98.5784 25.7642 99.1153 25.7642C99.871 25.7642 100.464 25.9299 100.895 26.2614C101.329 26.5928 101.638 27.0303 101.82 27.5739Z" fill="#9F9F9F"/>
</svg>
