<svg width="37" height="37" viewBox="0 0 37 37" fill="none" xmlns="http://www.w3.org/2000/svg">
<path d="M26.8231 10.175V12.025C26.8231 20.9304 21.8535 24.975 15.7231 24.975L13.9641 24.975C14.1597 22.1886 15.0269 20.5025 17.2918 18.499C18.4055 17.5138 18.3117 16.945 17.7626 17.2717C13.9853 19.519 12.1092 22.5573 12.026 27.408L12.0231 27.75H10.1731C10.1731 26.4896 10.2802 25.3448 10.4929 24.2981C10.2797 23.1011 10.1731 21.4763 10.1731 19.425C10.1731 14.3164 14.3145 10.175 19.4231 10.175C21.2731 10.175 23.1231 11.1 26.8231 10.175Z" fill="#8C9E1B"/>
<path d="M37 18.5C37 28.7173 28.7173 37 18.5 37C8.28273 37 0 28.7173 0 18.5C0 8.28273 8.28273 0 18.5 0C28.7173 0 37 8.28273 37 18.5ZM3.7 18.5C3.7 26.6738 10.3262 33.3 18.5 33.3C26.6738 33.3 33.3 26.6738 33.3 18.5C33.3 10.3262 26.6738 3.7 18.5 3.7C10.3262 3.7 3.7 10.3262 3.7 18.5Z" fill="#8C9E1B"/>
</svg>
