<svg width="59" height="40" viewBox="0 0 59 40" fill="none" xmlns="http://www.w3.org/2000/svg">
<rect x="0.416667" y="0.416667" width="57.5" height="39.1667" rx="4.58333" fill="white" stroke="#D9D9D9" stroke-width="0.833333"/>
<path fill-rule="evenodd" clip-rule="evenodd" d="M29.5833 28.5955C27.5973 30.3093 25.0212 31.3439 22.2062 31.3439C15.9251 31.3439 10.8333 26.193 10.8333 19.839C10.8333 13.4849 15.9251 8.33398 22.2062 8.33398C25.0212 8.33398 27.5973 9.36858 29.5833 11.0824C31.5692 9.36858 34.1453 8.33398 36.9603 8.33398C43.2414 8.33398 48.3333 13.4849 48.3333 19.839C48.3333 26.193 43.2414 31.3439 36.9603 31.3439C34.1453 31.3439 31.5692 30.3093 29.5833 28.5955Z" fill="#ED0006"/>
<path fill-rule="evenodd" clip-rule="evenodd" d="M29.5833 28.5955C32.0286 26.4853 33.5791 23.3453 33.5791 19.839C33.5791 16.3326 32.0286 13.1926 29.5833 11.0824C31.5692 9.36858 34.1453 8.33398 36.9603 8.33398C43.2414 8.33398 48.3333 13.4849 48.3333 19.839C48.3333 26.193 43.2414 31.3439 36.9603 31.3439C34.1453 31.3439 31.5692 30.3093 29.5833 28.5955Z" fill="#F9A000"/>
<path fill-rule="evenodd" clip-rule="evenodd" d="M29.5834 28.5951C32.0287 26.4849 33.5792 23.3449 33.5792 19.8386C33.5792 16.3322 32.0287 13.1923 29.5834 11.082C27.1381 13.1923 25.5875 16.3322 25.5875 19.8386C25.5875 23.3449 27.1381 26.4849 29.5834 28.5951Z" fill="#FF5E00"/>
</svg>
