<svg width="78" height="23" viewBox="0 0 78 23" fill="none" xmlns="http://www.w3.org/2000/svg">
<path d="M0.113636 18V0.545454H6.01136C7.38068 0.545454 8.5 0.792613 9.36932 1.28693C10.2443 1.77557 10.892 2.4375 11.3125 3.27273C11.733 4.10795 11.9432 5.03977 11.9432 6.06818C11.9432 7.09659 11.733 8.03125 11.3125 8.87216C10.8977 9.71307 10.2557 10.3835 9.38636 10.8835C8.51705 11.3778 7.40341 11.625 6.04545 11.625H1.81818V9.75H5.97727C6.91477 9.75 7.66761 9.58807 8.2358 9.2642C8.80398 8.94034 9.21591 8.50284 9.47159 7.9517C9.73295 7.39489 9.86364 6.76705 9.86364 6.06818C9.86364 5.36932 9.73295 4.74432 9.47159 4.19318C9.21591 3.64205 8.80114 3.21023 8.22727 2.89773C7.65341 2.57955 6.89205 2.42045 5.94318 2.42045H2.22727V18H0.113636ZM18.9276 18.3068C18.098 18.3068 17.3452 18.1506 16.669 17.8381C15.9929 17.5199 15.456 17.0625 15.0582 16.4659C14.6605 15.8636 14.4616 15.1364 14.4616 14.2841C14.4616 13.5341 14.6094 12.9261 14.9048 12.4602C15.2003 11.9886 15.5952 11.6193 16.0895 11.3523C16.5838 11.0852 17.1293 10.8864 17.7259 10.7557C18.3281 10.6193 18.9332 10.5114 19.5412 10.4318C20.3366 10.3295 20.9815 10.2528 21.4759 10.2017C21.9759 10.1449 22.3395 10.0511 22.5668 9.92045C22.7997 9.78977 22.9162 9.5625 22.9162 9.23864V9.17045C22.9162 8.32955 22.6861 7.67614 22.2259 7.21023C21.7713 6.74432 21.081 6.51136 20.1548 6.51136C19.1946 6.51136 18.4418 6.72159 17.8963 7.14205C17.3509 7.5625 16.9673 8.01136 16.7457 8.48864L14.8366 7.80682C15.1776 7.01136 15.6321 6.39205 16.2003 5.94886C16.7741 5.5 17.3991 5.1875 18.0753 5.01136C18.7571 4.82955 19.4276 4.73864 20.0866 4.73864C20.5071 4.73864 20.9901 4.78977 21.5355 4.89204C22.0866 4.98864 22.6179 5.19034 23.1293 5.49716C23.6463 5.80398 24.0753 6.26705 24.4162 6.88636C24.7571 7.50568 24.9276 8.33523 24.9276 9.375V18H22.9162V16.2273H22.8139C22.6776 16.5114 22.4503 16.8153 22.1321 17.1392C21.8139 17.4631 21.3906 17.7386 20.8622 17.9659C20.3338 18.1932 19.6889 18.3068 18.9276 18.3068ZM19.2344 16.5C20.0298 16.5 20.7003 16.3438 21.2457 16.0312C21.7969 15.7188 22.2116 15.3153 22.4901 14.821C22.7741 14.3267 22.9162 13.8068 22.9162 13.2614V11.4205C22.831 11.5227 22.6435 11.6165 22.3537 11.7017C22.0696 11.7812 21.7401 11.8523 21.3651 11.9148C20.9957 11.9716 20.6349 12.0227 20.2827 12.0682C19.9361 12.108 19.6548 12.142 19.4389 12.1705C18.9162 12.2386 18.4276 12.3494 17.973 12.5028C17.5241 12.6506 17.1605 12.875 16.8821 13.1761C16.6094 13.4716 16.473 13.875 16.473 14.3864C16.473 15.0852 16.7315 15.6136 17.2486 15.9716C17.7713 16.3239 18.4332 16.5 19.2344 16.5ZM29.4254 22.9091C29.0845 22.9091 28.7805 22.8807 28.5135 22.8239C28.2464 22.7727 28.0618 22.7216 27.9595 22.6705L28.4709 20.8977C28.9595 21.0227 29.3913 21.0682 29.7663 21.0341C30.1413 21 30.4737 20.8324 30.7635 20.5312C31.0589 20.2358 31.3288 19.7557 31.5732 19.0909L31.9482 18.0682L27.1072 4.90909H29.2891L32.9027 15.3409H33.0391L36.6527 4.90909H38.8345L33.2777 19.9091C33.0277 20.5852 32.718 21.1449 32.3487 21.5881C31.9794 22.0369 31.5504 22.3693 31.0618 22.5852C30.5788 22.8011 30.0334 22.9091 29.4254 22.9091ZM41.4893 22.9091V4.90909H43.4325V6.98864H43.6712C43.8189 6.76136 44.0234 6.47159 44.2848 6.11932C44.5518 5.76136 44.9325 5.44318 45.4268 5.16477C45.9268 4.88068 46.603 4.73864 47.4553 4.73864C48.5575 4.73864 49.5291 5.0142 50.37 5.56534C51.2109 6.11648 51.8672 6.89773 52.3388 7.90909C52.8104 8.92045 53.0462 10.1136 53.0462 11.4886C53.0462 12.875 52.8104 14.0767 52.3388 15.0938C51.8672 16.1051 51.2138 16.8892 50.3786 17.446C49.5433 17.9972 48.5803 18.2727 47.4893 18.2727C46.6484 18.2727 45.9751 18.1335 45.4695 17.8551C44.9638 17.571 44.5746 17.25 44.3018 16.892C44.0291 16.5284 43.8189 16.2273 43.6712 15.9886H43.5007V22.9091H41.4893ZM43.4666 11.4545C43.4666 12.4432 43.6115 13.3153 43.9013 14.071C44.1911 14.821 44.6143 15.4091 45.1712 15.8352C45.728 16.2557 46.4098 16.4659 47.2166 16.4659C48.0575 16.4659 48.7592 16.2443 49.3217 15.8011C49.8899 15.3523 50.3161 14.75 50.6001 13.9943C50.8899 13.233 51.0348 12.3864 51.0348 11.4545C51.0348 10.5341 50.8928 9.70455 50.6087 8.96591C50.3303 8.22159 49.907 7.63352 49.3388 7.2017C48.7763 6.7642 48.0689 6.54545 47.2166 6.54545C46.3984 6.54545 45.7109 6.75284 45.1541 7.16761C44.5973 7.5767 44.1768 8.15057 43.8928 8.8892C43.6087 9.62216 43.4666 10.4773 43.4666 11.4545ZM59.9666 18.3068C59.1371 18.3068 58.3842 18.1506 57.7081 17.8381C57.032 17.5199 56.495 17.0625 56.0973 16.4659C55.6996 15.8636 55.5007 15.1364 55.5007 14.2841C55.5007 13.5341 55.6484 12.9261 55.9439 12.4602C56.2393 11.9886 56.6342 11.6193 57.1286 11.3523C57.6229 11.0852 58.1683 10.8864 58.7649 10.7557C59.3672 10.6193 59.9723 10.5114 60.5803 10.4318C61.3757 10.3295 62.0206 10.2528 62.5149 10.2017C63.0149 10.1449 63.3786 10.0511 63.6058 9.92045C63.8388 9.78977 63.9553 9.5625 63.9553 9.23864V9.17045C63.9553 8.32955 63.7251 7.67614 63.2649 7.21023C62.8104 6.74432 62.12 6.51136 61.1939 6.51136C60.2337 6.51136 59.4808 6.72159 58.9354 7.14205C58.3899 7.5625 58.0064 8.01136 57.7848 8.48864L55.8757 7.80682C56.2166 7.01136 56.6712 6.39205 57.2393 5.94886C57.8132 5.5 58.4382 5.1875 59.1143 5.01136C59.7962 4.82955 60.4666 4.73864 61.1257 4.73864C61.5462 4.73864 62.0291 4.78977 62.5746 4.89204C63.1257 4.98864 63.657 5.19034 64.1683 5.49716C64.6854 5.80398 65.1143 6.26705 65.4553 6.88636C65.7962 7.50568 65.9666 8.33523 65.9666 9.375V18H63.9553V16.2273H63.853C63.7166 16.5114 63.4893 16.8153 63.1712 17.1392C62.853 17.4631 62.4297 17.7386 61.9013 17.9659C61.3729 18.1932 60.728 18.3068 59.9666 18.3068ZM60.2734 16.5C61.0689 16.5 61.7393 16.3438 62.2848 16.0312C62.8359 15.7188 63.2507 15.3153 63.5291 14.821C63.8132 14.3267 63.9553 13.8068 63.9553 13.2614V11.4205C63.87 11.5227 63.6825 11.6165 63.3928 11.7017C63.1087 11.7812 62.7791 11.8523 62.4041 11.9148C62.0348 11.9716 61.674 12.0227 61.3217 12.0682C60.9751 12.108 60.6939 12.142 60.478 12.1705C59.9553 12.2386 59.4666 12.3494 59.0121 12.5028C58.5632 12.6506 58.1996 12.875 57.9212 13.1761C57.6484 13.4716 57.5121 13.875 57.5121 14.3864C57.5121 15.0852 57.7706 15.6136 58.2876 15.9716C58.8104 16.3239 59.4723 16.5 60.2734 16.5ZM71.6491 0.545454V18H69.6378V0.545454H71.6491ZM77.3445 0.545454V18H75.3331V0.545454H77.3445Z" fill="white"/>
</svg>
