<svg width="59" height="40" viewBox="0 0 59 40" fill="none" xmlns="http://www.w3.org/2000/svg">
<rect x="0.750041" y="0.416667" width="57.5" height="39.1667" rx="4.58333" fill="white" stroke="#D9D9D9" stroke-width="0.833333"/>
<path fill-rule="evenodd" clip-rule="evenodd" d="M18.0421 27.0973H14.5083L11.8583 16.9875C11.7325 16.5224 11.4655 16.1113 11.0726 15.9175C10.0922 15.4306 9.0119 15.043 7.83337 14.8476V14.4583H13.5262C14.3118 14.4583 14.9011 15.043 14.9993 15.7221L16.3743 23.0146L19.9064 14.4583H23.3421L18.0421 27.0973ZM25.3064 27.0973H21.9689L24.7171 14.4583H28.0545L25.3064 27.0973ZM32.3722 17.9598C32.4704 17.2791 33.0597 16.8899 33.7472 16.8899C34.8275 16.7922 36.0043 16.9876 36.9864 17.4729L37.5757 14.7517C36.5936 14.3624 35.5133 14.167 34.5329 14.167C31.2936 14.167 28.9366 15.9177 28.9366 18.3474C28.9366 20.1958 30.6062 21.1663 31.7847 21.751C33.0597 22.334 33.5508 22.7232 33.4525 23.3062C33.4525 24.1807 32.4704 24.57 31.4901 24.57C30.3115 24.57 29.133 24.2785 28.0544 23.7915L27.4651 26.5144C28.6437 26.9997 29.9187 27.1951 31.0972 27.1951C34.7293 27.2912 36.9864 25.5422 36.9864 22.917C36.9864 19.6111 32.3722 19.4173 32.3722 17.9598ZM48.6668 27.0973L46.0168 14.4583H43.1704C42.5811 14.4583 41.9919 14.8476 41.7954 15.4306L36.8883 27.0973H40.324L41.0098 25.2505H45.2311L45.6239 27.0973H48.6668ZM43.6614 17.8621L44.6418 22.6255H41.8936L43.6614 17.8621Z" fill="#172B85"/>
</svg>
